<svg viewBox="0 0 64 46" fill="none" xmlns="http://www.w3.org/2000/svg">
<g filter="url(#filter0_d_4211_456)">
<mask id="path-1-outside-1_4211_456" maskUnits="userSpaceOnUse" x="3.5" y="0.486816" width="56" height="39" fill="black">
<rect fill="white" x="3.5" y="0.486816" width="56" height="39"/>
<path d="M30 30.7868C30 32.4368 29.525 33.8868 28.575 35.1368C27.675 36.3368 26.175 36.9368 24.075 36.9368C23.175 36.9368 22.25 36.6868 21.3 36.1868C20.35 35.6368 19.25 34.9118 18 34.0118L7.275 24.8618C6.425 23.7618 6 22.2618 6 20.3618C6 19.0118 6.2 17.9618 6.6 17.2118C7 16.4618 7.575 15.8618 8.325 15.4118L23.4 3.18681C25.55 3.73681 27 4.51182 27.75 5.51181C28.55 6.51181 28.95 7.58681 28.95 8.73682C28.95 10.0368 28.65 11.2118 28.05 12.2618C27.5 13.2618 26.825 14.2868 26.025 15.3368H55.8C56.1 15.8868 56.4 16.5868 56.7 17.4368C57.05 18.2868 57.225 19.2118 57.225 20.2118C57.225 22.0618 56.8 23.4118 55.95 24.2618C55.15 25.0618 54.075 25.4618 52.725 25.4618H26.025L30 30.7868Z"/>
</mask>
<path d="M30 30.7868C30 32.4368 29.525 33.8868 28.575 35.1368C27.675 36.3368 26.175 36.9368 24.075 36.9368C23.175 36.9368 22.25 36.6868 21.3 36.1868C20.35 35.6368 19.25 34.9118 18 34.0118L7.275 24.8618C6.425 23.7618 6 22.2618 6 20.3618C6 19.0118 6.2 17.9618 6.6 17.2118C7 16.4618 7.575 15.8618 8.325 15.4118L23.4 3.18681C25.55 3.73681 27 4.51182 27.75 5.51181C28.55 6.51181 28.95 7.58681 28.95 8.73682C28.95 10.0368 28.65 11.2118 28.05 12.2618C27.5 13.2618 26.825 14.2868 26.025 15.3368H55.8C56.1 15.8868 56.4 16.5868 56.7 17.4368C57.05 18.2868 57.225 19.2118 57.225 20.2118C57.225 22.0618 56.8 23.4118 55.95 24.2618C55.15 25.0618 54.075 25.4618 52.725 25.4618H26.025L30 30.7868Z" fill="white"/>
<path d="M30 30.7868H32V30.1227L31.6027 29.5904L30 30.7868ZM28.575 35.1368L26.9826 33.9266L26.975 33.9368L28.575 35.1368ZM21.3 36.1868L20.2979 37.9177L20.3328 37.9379L20.3685 37.9566L21.3 36.1868ZM18 34.0118L16.7019 35.5333L16.7646 35.5868L16.8314 35.6349L18 34.0118ZM7.275 24.8618L5.69243 26.0847L5.8192 26.2488L5.97693 26.3833L7.275 24.8618ZM6.6 17.2118L8.36471 18.153H8.36471L6.6 17.2118ZM8.325 15.4118L9.35399 17.1268L9.47506 17.0542L9.58473 16.9652L8.325 15.4118ZM23.4 3.18681L23.8957 1.24921L22.9214 0.999969L22.1403 1.6334L23.4 3.18681ZM27.75 5.51181L26.15 6.71181L26.1687 6.73681L26.1883 6.7612L27.75 5.51181ZM28.05 12.2618L26.3135 11.2695L26.3054 11.2837L26.2976 11.298L28.05 12.2618ZM26.025 15.3368L24.4341 14.1247L21.9868 17.3368H26.025V15.3368ZM55.8 15.3368L57.5558 14.3791L56.9873 13.3368H55.8V15.3368ZM56.7 17.4368L54.814 18.1025L54.8311 18.1509L54.8506 18.1983L56.7 17.4368ZM55.95 24.2618L57.3642 25.676L57.3642 25.676L55.95 24.2618ZM26.025 25.4618V23.4618H22.0363L24.4223 26.6582L26.025 25.4618ZM30 30.7868H28C28 32.0236 27.6541 33.0432 26.9827 33.9267L28.575 35.1368L30.1673 36.347C31.3959 34.7305 32 32.8501 32 30.7868H30ZM28.575 35.1368L26.975 33.9368C26.5889 34.4516 25.8137 34.9368 24.075 34.9368V36.9368V38.9368C26.5363 38.9368 28.7611 38.222 30.175 36.3368L28.575 35.1368ZM24.075 36.9368V34.9368C23.5566 34.9368 22.9494 34.7948 22.2315 34.417L21.3 36.1868L20.3685 37.9566C21.5506 38.5788 22.7934 38.9368 24.075 38.9368V36.9368ZM21.3 36.1868L22.3021 34.456C21.427 33.9493 20.3845 33.2642 19.1686 32.3887L18 34.0118L16.8314 35.6349C18.1155 36.5595 19.273 37.3243 20.2979 37.9177L21.3 36.1868ZM18 34.0118L19.2981 32.4903L8.57307 23.3403L7.275 24.8618L5.97693 26.3833L16.7019 35.5333L18 34.0118ZM7.275 24.8618L8.85757 23.6389C8.36215 22.9978 8 21.9796 8 20.3618H6H4C4 22.544 4.48785 24.5258 5.69243 26.0847L7.275 24.8618ZM6 20.3618H8C8 19.1665 8.18424 18.4914 8.36471 18.153L6.6 17.2118L4.83529 16.2706C4.21576 17.4323 4 18.8572 4 20.3618H6ZM6.6 17.2118L8.36471 18.153C8.58901 17.7324 8.90537 17.396 9.35399 17.1268L8.325 15.4118L7.29601 13.6968C6.24463 14.3277 5.41099 15.1912 4.83529 16.2706L6.6 17.2118ZM8.325 15.4118L9.58473 16.9652L24.6597 4.74022L23.4 3.18681L22.1403 1.6334L7.06527 13.8584L8.325 15.4118ZM23.4 3.18681L22.9043 5.12442C24.9183 5.63963 25.8162 6.26677 26.15 6.71181L27.75 5.51181L29.35 4.31181C28.1838 2.75686 26.1817 1.834 23.8957 1.24921L23.4 3.18681ZM27.75 5.51181L26.1883 6.7612C26.7387 7.44929 26.95 8.09279 26.95 8.73682H28.95H30.95C30.95 7.08084 30.3613 5.57434 29.3117 4.26242L27.75 5.51181ZM28.95 8.73682H26.95C26.95 9.71571 26.7279 10.5443 26.3135 11.2695L28.05 12.2618L29.7865 13.2541C30.5721 11.8793 30.95 10.3579 30.95 8.73682H28.95ZM28.05 12.2618L26.2976 11.298C25.8019 12.1992 25.1833 13.1415 24.4341 14.1247L26.025 15.3368L27.6159 16.5489C28.4667 15.4321 29.1981 14.3245 29.8024 13.2257L28.05 12.2618ZM26.025 15.3368V17.3368H55.8V15.3368V13.3368H26.025V15.3368ZM55.8 15.3368L54.0442 16.2945C54.2763 16.72 54.5356 17.3135 54.814 18.1025L56.7 17.4368L58.586 16.7712C58.2645 15.8602 57.9237 15.0537 57.5558 14.3791L55.8 15.3368ZM56.7 17.4368L54.8506 18.1983C55.0927 18.7863 55.225 19.4499 55.225 20.2118H57.225H59.225C59.225 18.9737 59.0073 17.7874 58.5494 16.6753L56.7 17.4368ZM57.225 20.2118H55.225C55.225 21.811 54.8509 22.5325 54.5358 22.8476L55.95 24.2618L57.3642 25.676C58.7491 24.2911 59.225 22.3126 59.225 20.2118H57.225ZM55.95 24.2618L54.5358 22.8476C54.182 23.2014 53.6545 23.4618 52.725 23.4618V25.4618V27.4618C54.4955 27.4618 56.118 26.9223 57.3642 25.676L55.95 24.2618ZM52.725 25.4618V23.4618H26.025V25.4618V27.4618H52.725V25.4618ZM26.025 25.4618L24.4223 26.6582L28.3973 31.9832L30 30.7868L31.6027 29.5904L27.6277 24.2654L26.025 25.4618Z" fill="#D76826" mask="url(#path-1-outside-1_4211_456)"/>
</g>
<defs>
<filter id="filter0_d_4211_456" x="0" y="0" width="63.2251" height="45.9368" filterUnits="userSpaceOnUse" color-interpolation-filters="sRGB">
<feFlood flood-opacity="0" result="BackgroundImageFix"/>
<feColorMatrix in="SourceAlpha" type="matrix" values="0 0 0 0 0 0 0 0 0 0 0 0 0 0 0 0 0 0 127 0" result="hardAlpha"/>
<feOffset dy="3"/>
<feGaussianBlur stdDeviation="2"/>
<feComposite in2="hardAlpha" operator="out"/>
<feColorMatrix type="matrix" values="0 0 0 0 0 0 0 0 0 0 0 0 0 0 0 0 0 0 0.25 0"/>
<feBlend mode="normal" in2="BackgroundImageFix" result="effect1_dropShadow_4211_456"/>
<feBlend mode="normal" in="SourceGraphic" in2="effect1_dropShadow_4211_456" result="shape"/>
</filter>
</defs>
</svg>
