<svg  viewBox="0 0 22 51" fill="none" xmlns="http://www.w3.org/2000/svg">
<mask id="path-1-outside-1_4210_178" maskUnits="userSpaceOnUse" x="-1.89555" y="-1.19759" width="26.0521" height="54.1382" fill="black">
<rect fill="white" x="-1.89555" y="-1.19759" width="26.0521" height="54.1382"/>
<path d="M19.7498 8.3001C19.6005 9.36299 19.3598 10.9079 19.0278 12.9347C18.7023 14.9154 18.3046 17.0744 17.8348 19.4117C17.3714 21.7029 16.8586 24.0106 16.2963 26.335C15.7405 28.6131 15.1807 30.5844 14.6169 32.2488C14.4125 32.3615 14.1158 32.4611 13.7266 32.5478C13.3374 32.6345 12.9284 32.6948 12.4995 32.7288C12.0706 32.7628 11.6449 32.7736 11.2225 32.7614C10.8001 32.7491 10.4272 32.7203 10.1037 32.6748C8.7635 32.4865 7.66052 32.1194 6.79473 31.5736C5.97514 31.0343 5.53425 30.1476 5.47205 28.9136C5.39037 27.8183 5.40973 26.1716 5.53013 23.9736C5.69674 21.7822 5.88934 19.4058 6.10791 16.8447C6.32649 14.2835 6.56492 11.7487 6.82321 9.24021C7.12771 6.73824 7.40336 4.60922 7.65017 2.85315C8.64586 2.4747 9.74084 2.22803 10.9351 2.11312C12.1821 1.9585 13.3833 1.96237 14.5386 2.12474C16.4333 2.39102 17.8273 3.03463 18.7206 4.05555C19.66 5.08296 20.0031 6.49782 19.7498 8.3001ZM2.08517 41.4442C2.35145 39.5495 3.14668 38.0826 4.47086 37.0434C5.84774 35.9645 7.57597 35.5712 9.65553 35.8635C11.7351 36.1558 13.2649 37.0069 14.2448 38.417C15.2775 39.7874 15.6607 41.42 15.3944 43.3147C15.1281 45.2094 14.3065 46.6962 12.9296 47.7751C11.6054 48.8142 9.90357 49.1877 7.82401 48.8954C5.74445 48.6032 4.18833 47.7718 3.15567 46.4014C2.17572 44.9913 1.81888 43.3389 2.08517 41.4442Z"/>
</mask>
<path d="M19.7498 8.3001C19.6005 9.36299 19.3598 10.9079 19.0278 12.9347C18.7023 14.9154 18.3046 17.0744 17.8348 19.4117C17.3714 21.7029 16.8586 24.0106 16.2963 26.335C15.7405 28.6131 15.1807 30.5844 14.6169 32.2488C14.4125 32.3615 14.1158 32.4611 13.7266 32.5478C13.3374 32.6345 12.9284 32.6948 12.4995 32.7288C12.0706 32.7628 11.6449 32.7736 11.2225 32.7614C10.8001 32.7491 10.4272 32.7203 10.1037 32.6748C8.7635 32.4865 7.66052 32.1194 6.79473 31.5736C5.97514 31.0343 5.53425 30.1476 5.47205 28.9136C5.39037 27.8183 5.40973 26.1716 5.53013 23.9736C5.69674 21.7822 5.88934 19.4058 6.10791 16.8447C6.32649 14.2835 6.56492 11.7487 6.82321 9.24021C7.12771 6.73824 7.40336 4.60922 7.65017 2.85315C8.64586 2.4747 9.74084 2.22803 10.9351 2.11312C12.1821 1.9585 13.3833 1.96237 14.5386 2.12474C16.4333 2.39102 17.8273 3.03463 18.7206 4.05555C19.66 5.08296 20.0031 6.49782 19.7498 8.3001ZM2.08517 41.4442C2.35145 39.5495 3.14668 38.0826 4.47086 37.0434C5.84774 35.9645 7.57597 35.5712 9.65553 35.8635C11.7351 36.1558 13.2649 37.0069 14.2448 38.417C15.2775 39.7874 15.6607 41.42 15.3944 43.3147C15.1281 45.2094 14.3065 46.6962 12.9296 47.7751C11.6054 48.8142 9.90357 49.1877 7.82401 48.8954C5.74445 48.6032 4.18833 47.7718 3.15567 46.4014C2.17572 44.9913 1.81888 43.3389 2.08517 41.4442Z" fill="white"/>
<path d="M19.0278 12.9347L21.0013 13.259L21.0015 13.258L19.0278 12.9347ZM17.8348 19.4117L19.7951 19.8082L19.7955 19.8059L17.8348 19.4117ZM16.2963 26.335L18.2393 26.809L18.2402 26.8052L16.2963 26.335ZM14.6169 32.2488L15.5825 34.0002L16.2622 33.6255L16.5112 32.8905L14.6169 32.2488ZM13.7266 32.5478L14.1614 34.5L14.1614 34.5L13.7266 32.5478ZM12.4995 32.7288L12.6574 34.7225L12.6574 34.7225L12.4995 32.7288ZM6.79473 31.5736L5.69533 33.2443L5.71164 33.2551L5.72815 33.2655L6.79473 31.5736ZM5.47205 28.9136L7.46951 28.8129L7.4683 28.7889L7.46651 28.7649L5.47205 28.9136ZM5.53013 23.9736L3.53588 23.822L3.53428 23.8431L3.53312 23.8642L5.53013 23.9736ZM6.10791 16.8447L8.10067 17.0147V17.0147L6.10791 16.8447ZM6.82321 9.24022L4.83786 8.99859L4.83562 9.01695L4.83373 9.03536L6.82321 9.24022ZM7.65017 2.85314L6.9396 0.983629L5.83421 1.40377L5.66963 2.5748L7.65017 2.85314ZM10.9351 2.11312L11.1267 4.10393L11.154 4.1013L11.1812 4.09792L10.9351 2.11312ZM18.7206 4.05555L17.2154 5.37253L17.2298 5.38902L17.2446 5.40519L18.7206 4.05555ZM4.47086 37.0434L3.23731 35.4691L3.23615 35.47L4.47086 37.0434ZM14.2448 38.417L12.6025 39.5584L12.6244 39.59L12.6475 39.6207L14.2448 38.417ZM12.9296 47.7751L11.6961 46.2008L11.6949 46.2017L12.9296 47.7751ZM3.15567 46.4014L1.51332 47.5428L1.53526 47.5744L1.5584 47.6051L3.15567 46.4014ZM19.7498 8.3001L17.7693 8.02176C17.6232 9.06171 17.3854 10.5887 17.0541 12.6114L19.0278 12.9347L21.0015 13.258C21.3342 11.227 21.5778 9.66427 21.7304 8.57845L19.7498 8.3001ZM19.0278 12.9347L17.0543 12.6104C16.7333 14.5639 16.34 16.6992 15.874 19.0175L17.8348 19.4117L19.7955 19.8059C20.2692 17.4495 20.6714 15.2669 21.0013 13.259L19.0278 12.9347ZM17.8348 19.4117L15.8745 19.0152C15.4162 21.2811 14.9088 23.5643 14.3523 25.8647L16.2963 26.335L18.2402 26.8052C18.8083 24.4569 19.3266 22.1246 19.7951 19.8082L17.8348 19.4117ZM16.2963 26.335L14.3533 25.8609C13.807 28.0999 13.2627 30.0126 12.7226 31.6071L14.6169 32.2488L16.5112 32.8905C17.0986 31.1562 17.6739 29.1263 18.2393 26.809L16.2963 26.335ZM14.6169 32.2488L13.6512 30.4974C13.6827 30.48 13.6748 30.4885 13.6043 30.5121C13.5372 30.5346 13.4356 30.5636 13.2918 30.5956L13.7266 32.5478L14.1614 34.5C14.6247 34.3968 15.1348 34.2471 15.5825 34.0002L14.6169 32.2488ZM13.7266 32.5478L13.2918 30.5956C13.0007 30.6605 12.6846 30.7079 12.3416 30.735L12.4995 32.7288L12.6574 34.7225C13.1722 34.6818 13.6742 34.6085 14.1614 34.5L13.7266 32.5478ZM12.4995 32.7288L12.3416 30.735C11.9832 30.7634 11.6296 30.7723 11.2804 30.7622L11.2225 32.7614L11.1646 34.7605C11.6603 34.7749 12.158 34.7621 12.6574 34.7225L12.4995 32.7288ZM11.2225 32.7614L11.2804 30.7622C10.9117 30.7515 10.6149 30.727 10.382 30.6943L10.1037 32.6748L9.82532 34.6554C10.2394 34.7136 10.6886 34.7468 11.1646 34.7605L11.2225 32.7614ZM10.1037 32.6748L10.382 30.6943C9.23606 30.5332 8.4238 30.2363 7.8613 29.8817L6.79473 31.5736L5.72815 33.2655C6.89724 34.0025 8.29095 34.4397 9.82532 34.6554L10.1037 32.6748ZM6.79473 31.5736L7.89412 29.9029C7.74374 29.8039 7.50887 29.5938 7.46951 28.8129L5.47205 28.9136L3.47459 29.0143C3.55962 30.7014 4.20654 32.2646 5.69533 33.2443L6.79473 31.5736ZM5.47205 28.9136L7.46651 28.7649C7.39481 27.8034 7.40776 26.2623 7.52713 24.083L5.53013 23.9736L3.53312 23.8642C3.41169 26.0809 3.38592 27.8331 3.47759 29.0624L5.47205 28.9136ZM5.53013 23.9736L7.52437 24.1253C7.69045 21.9409 7.88253 19.5708 8.10067 17.0147L6.10791 16.8447L4.11516 16.6746C3.89614 19.2409 3.70304 21.6235 3.53588 23.822L5.53013 23.9736ZM6.10791 16.8447L8.10067 17.0147C8.31827 14.4649 8.55561 11.9417 8.81269 9.44507L6.82321 9.24022L4.83373 9.03536C4.57422 11.5556 4.3347 14.1021 4.11516 16.6746L6.10791 16.8447ZM6.82321 9.24022L8.80856 9.48184C9.11214 6.98749 9.38617 4.87146 9.6307 3.13149L7.65017 2.85314L5.66963 2.5748C5.42056 4.34698 5.14329 6.489 4.83786 8.99859L6.82321 9.24022ZM7.65017 2.85314L8.36073 4.72266C9.1701 4.41504 10.088 4.20386 11.1267 4.10393L10.9351 2.11312L10.7436 0.122312C9.39369 0.25219 8.12161 0.534367 6.9396 0.983629L7.65017 2.85314ZM10.9351 2.11312L11.1812 4.09792C12.2673 3.96325 13.2916 3.96914 14.2602 4.10527L14.5386 2.12474L14.8169 0.144202C13.4749 -0.0444057 12.0969 -0.046255 10.689 0.128319L10.9351 2.11312ZM14.5386 2.12474L14.2602 4.10527C15.8729 4.33192 16.7466 4.83671 17.2154 5.37253L18.7206 4.05555L20.2257 2.73856C18.908 1.23254 16.9937 0.450123 14.8169 0.144202L14.5386 2.12474ZM18.7206 4.05555L17.2446 5.40519C17.6653 5.86523 17.967 6.61533 17.7693 8.02176L19.7498 8.3001L21.7304 8.57845C22.0393 6.3803 21.6548 4.30069 20.1965 2.70591L18.7206 4.05555ZM2.08517 41.4442L4.0657 41.7226C4.27069 40.264 4.84439 39.2926 5.70557 38.6168L4.47086 37.0434L3.23615 35.47C1.44897 36.8725 0.432213 38.835 0.104632 41.1659L2.08517 41.4442ZM4.47086 37.0434L5.70441 38.6177C6.56915 37.9401 7.71965 37.6111 9.37718 37.844L9.65553 35.8635L9.93387 33.883C7.43228 33.5314 5.12634 33.989 3.23731 35.4691L4.47086 37.0434ZM9.65553 35.8635L9.37718 37.844C11.0375 38.0774 12.0095 38.7052 12.6025 39.5584L14.2448 38.417L15.8872 37.2757C14.5202 35.3087 12.4327 34.2341 9.93387 33.883L9.65553 35.8635ZM14.2448 38.417L12.6475 39.6207C13.3229 40.5169 13.6156 41.6008 13.4138 43.0364L15.3944 43.3147L17.3749 43.593C17.7057 41.2392 17.232 39.0579 15.8421 37.2134L14.2448 38.417ZM15.3944 43.3147L13.4138 43.0364C13.2122 44.4713 12.6257 45.4723 11.6961 46.2008L12.9296 47.7751L14.1632 49.3494C15.9873 47.9201 17.044 45.9475 17.3749 43.593L15.3944 43.3147ZM12.9296 47.7751L11.6949 46.2017C10.8997 46.8258 9.78504 47.1514 8.10236 46.9149L7.82401 48.8954L7.54566 50.876C10.0221 51.224 12.3112 50.8027 14.1643 49.3484L12.9296 47.7751ZM7.82401 48.8954L8.10236 46.9149C6.42301 46.6789 5.39766 46.0534 4.75294 45.1978L3.15567 46.4014L1.5584 47.6051C2.97901 49.4903 5.06588 50.5274 7.54566 50.876L7.82401 48.8954ZM3.15567 46.4014L4.79802 45.2601C4.13926 44.3122 3.86088 43.18 4.0657 41.7226L2.08517 41.4442L0.104632 41.1659C-0.223108 43.4979 0.212175 45.6705 1.51332 47.5428L3.15567 46.4014Z" fill="#D76826" mask="url(#path-1-outside-1_4210_178)"/>
</svg>
