<svg viewBox="0 0 175 98" fill="none" xmlns="http://www.w3.org/2000/svg">
<g filter="url(#filter0_d_1822_343)">
<g filter="url(#filter1_ii_1822_343)">
<path d="M44.5244 21.5906C44.5244 19.6192 45.6829 17.8318 47.4824 17.0266L83.4964 0.913605C84.7957 0.3323 86.2811 0.3323 87.5804 0.913605L123.594 17.0266C125.394 17.8318 126.552 19.6192 126.552 21.5906V68.3247C126.552 70.2961 125.394 72.0835 123.594 72.8887L87.5804 89.0017C86.2811 89.583 84.7957 89.583 83.4964 89.0017L47.4824 72.8887C45.6829 72.0835 44.5244 70.2961 44.5244 68.3247V21.5906Z" fill="url(#paint0_linear_1822_343)"/>
</g>
<g filter="url(#filter2_ii_1822_343)">
<path d="M57.6054 54.5346C51.2695 58.8082 39.7936 52.8737 31.9732 41.2794C24.1528 29.6852 -1.33397 26.2024 5.00187 21.9288C11.3377 17.6553 47.0969 14.2092 54.9173 25.8034C62.7377 37.3977 63.9412 50.2611 57.6054 54.5346Z" fill="#DF7E03"/>
</g>
<path d="M54.7103 25.9436C58.6015 31.7127 60.839 37.7875 61.3209 42.9375C61.8037 48.0982 60.5224 52.2659 57.4657 54.3277C54.409 56.3894 50.0647 56.0162 45.4607 53.6353C40.8662 51.2593 36.0719 46.9091 32.1806 41.1401C30.1957 38.1974 27.1002 35.7825 23.6967 33.7508C20.2913 31.718 16.5567 30.0566 13.2785 28.6298C9.98578 27.1965 7.17983 26.0104 5.58438 24.919C5.18854 24.6482 4.87736 24.3888 4.65439 24.141C4.43085 23.8924 4.30746 23.6669 4.26638 23.4627C4.1912 23.0884 4.37621 22.6524 5.14192 22.1359C5.90238 21.6231 7.12546 21.1108 8.71718 20.6326C10.3042 20.1557 12.2406 19.7173 14.416 19.3472C18.7671 18.6067 24.0611 18.1392 29.4014 18.1659C34.7431 18.1926 40.1209 18.714 44.6438 19.9469C49.1747 21.182 52.8054 23.1195 54.7103 25.9436Z" stroke="#890D00" stroke-width="0.5"/>
<g filter="url(#filter3_ii_1822_343)">
<path d="M52.7789 46.3564C48.555 49.2055 40.9044 45.2491 35.6908 37.5196C30.4772 29.7901 13.486 27.4683 17.7099 24.6192C21.9338 21.7702 45.7733 19.4728 50.9869 27.2023C56.2005 34.9318 57.0028 43.5074 52.7789 46.3564Z" fill="#C4761D"/>
</g>
<path d="M50.8624 27.2866C53.4578 31.1346 54.951 35.1874 55.2725 38.624C55.5945 42.0668 54.7399 44.853 52.6948 46.2324C50.6496 47.6117 47.7462 47.3606 44.6748 45.7723C41.6088 44.1868 38.4105 41.2841 35.815 37.4362C34.4938 35.4774 32.4327 33.8692 30.1647 32.5153C27.8954 31.1607 25.4065 30.0529 23.221 29.1016C21.0269 28.1466 19.1546 27.3549 18.0893 26.6262C17.8247 26.4451 17.6153 26.2713 17.4654 26.1046C17.3155 25.9379 17.2311 25.7855 17.2029 25.6456C17.1507 25.3859 17.2818 25.0894 17.7939 24.744C18.303 24.4006 19.1202 24.0577 20.182 23.7386C21.2408 23.4205 22.5326 23.1283 23.9834 22.8814C26.8851 22.3877 30.4152 22.0766 33.9763 22.0944C37.5382 22.1122 41.1248 22.4595 44.1419 23.2818C47.1639 24.1056 49.5891 25.3989 50.8624 27.2866Z" stroke="#890D00" stroke-width="0.3"/>
<g filter="url(#filter4_ii_1822_343)">
<path d="M113.416 54.5346C119.752 58.8082 131.228 52.8737 139.048 41.2794C146.869 29.6852 172.355 26.2024 166.02 21.9288C159.684 17.6553 123.925 14.2092 116.104 25.8034C108.284 37.3977 107.08 50.2611 113.416 54.5346Z" fill="#DF7E03"/>
</g>
<path d="M116.311 25.9436C112.42 31.7127 110.182 37.7875 109.701 42.9375C109.218 48.0982 110.499 52.2659 113.556 54.3277C116.613 56.3894 120.957 56.0162 125.561 53.6353C130.155 51.2593 134.95 46.9091 138.841 41.1401C140.826 38.1974 143.921 35.7825 147.325 33.7508C150.73 31.718 154.465 30.0566 157.743 28.6298C161.036 27.1965 163.842 26.0104 165.437 24.919C165.833 24.6482 166.144 24.3888 166.367 24.141C166.591 23.8924 166.714 23.6669 166.755 23.4627C166.83 23.0884 166.645 22.6524 165.88 22.1359C165.119 21.6231 163.896 21.1108 162.304 20.6326C160.717 20.1557 158.781 19.7173 156.605 19.3472C152.254 18.6067 146.96 18.1392 141.62 18.1659C136.278 18.1926 130.901 18.714 126.378 19.9469C121.847 21.182 118.216 23.1195 116.311 25.9436Z" stroke="#890D00" stroke-width="0.5"/>
<g filter="url(#filter5_ii_1822_343)">
<path d="M118.047 46.3564C122.271 49.2055 129.922 45.2491 135.135 37.5196C140.349 29.7901 157.34 27.4683 153.116 24.6192C148.892 21.7702 125.053 19.4728 119.839 27.2023C114.626 34.9318 113.823 43.5074 118.047 46.3564Z" fill="#C4761D"/>
</g>
<path d="M119.964 27.2866C117.368 31.1346 115.875 35.1874 115.554 38.624C115.232 42.0668 116.086 44.853 118.131 46.2324C120.177 47.6117 123.08 47.3606 126.151 45.7723C129.217 44.1868 132.416 41.2841 135.011 37.4362C136.332 35.4774 138.393 33.8692 140.662 32.5153C142.931 31.1607 145.42 30.0529 147.605 29.1016C149.799 28.1466 151.672 27.3549 152.737 26.6262C153.002 26.4451 153.211 26.2713 153.361 26.1046C153.511 25.9379 153.595 25.7855 153.623 25.6456C153.675 25.3859 153.544 25.0894 153.032 24.744C152.523 24.4006 151.706 24.0577 150.644 23.7386C149.585 23.4205 148.294 23.1283 146.843 22.8814C143.941 22.3877 140.411 22.0766 136.85 22.0944C133.288 22.1122 129.701 22.4595 126.684 23.2818C123.662 24.1056 121.237 25.3989 119.964 27.2866Z" stroke="#890D00" stroke-width="0.3"/>
<g filter="url(#filter6_ii_1822_343)">
<path d="M58.1963 26.6633C58.1963 25.5346 58.8298 24.5015 59.8356 23.9896L83.2712 12.0632C84.6961 11.3381 86.3818 11.3381 87.8067 12.0632L111.242 23.9896C112.248 24.5015 112.882 25.5346 112.882 26.6633V63.3369C112.882 64.4656 112.248 65.4987 111.242 66.0106L87.8067 77.937C86.3818 78.6621 84.6961 78.6621 83.2712 77.937L59.8356 66.0106C58.8298 65.4987 58.1963 64.4656 58.1963 63.3369V26.6633Z" fill="url(#paint1_linear_1822_343)"/>
</g>
<path d="M83.3848 12.2861C84.7384 11.5973 86.3398 11.5973 87.6934 12.2861L111.129 24.2119C112.051 24.6811 112.632 25.6286 112.632 26.6631V63.3369C112.632 64.3715 112.051 65.3188 111.129 65.7881L87.6934 77.7139C86.3397 78.4027 84.7384 78.4027 83.3848 77.7139L59.9492 65.7881C59.0272 65.3188 58.4463 64.3715 58.4463 63.3369V26.6631C58.4464 25.6286 59.0272 24.6811 59.9492 24.2119L83.3848 12.2861Z" stroke="#890D00" stroke-width="0.5"/>
<mask id="path-12-outside-1_1822_343" maskUnits="userSpaceOnUse" x="65.5107" y="35" width="40" height="20" fill="black">
<rect fill="white" x="65.5107" y="35" width="40" height="20"/>
<path d="M67.2657 41.066H71.9907V52.838L69.7767 53.081C69.0027 53.081 68.3907 52.856 67.9407 52.406C67.4907 51.956 67.2657 51.344 67.2657 50.57V41.066ZM69.7767 53.081V49.274H78.1737C78.2997 49.472 78.4167 49.733 78.5247 50.057C78.6327 50.381 78.6867 50.732 78.6867 51.11C78.6867 51.776 78.5427 52.271 78.2547 52.595C77.9667 52.919 77.5707 53.081 77.0667 53.081H69.7767ZM71.9907 47.303H67.2657V36.584C67.4817 36.548 67.7967 36.503 68.2107 36.449C68.6427 36.377 69.0567 36.341 69.4527 36.341C70.3527 36.341 71.0007 36.494 71.3967 36.8C71.7927 37.106 71.9907 37.7 71.9907 38.582V47.303ZM89.5648 52.46C89.3128 52.676 88.9168 52.865 88.3768 53.027C87.8548 53.189 87.2788 53.27 86.6488 53.27C85.9108 53.27 85.2628 53.162 84.7048 52.946C84.1648 52.712 83.7958 52.397 83.5978 52.001C83.3458 51.497 83.0488 50.831 82.7068 50.003C82.3648 49.175 81.9958 48.239 81.5998 47.195C81.2038 46.151 80.8078 45.071 80.4118 43.955C80.0158 42.839 79.6468 41.732 79.3048 40.634C78.9808 39.518 78.7018 38.492 78.4678 37.556C78.7198 37.304 79.0798 37.079 79.5478 36.881C80.0338 36.665 80.5468 36.557 81.0868 36.557C81.7528 36.557 82.2928 36.701 82.7068 36.989C83.1388 37.277 83.4538 37.79 83.6518 38.528C84.1378 40.292 84.6238 41.984 85.1098 43.604C85.6138 45.206 86.1358 46.88 86.6758 48.626H86.8378C87.1618 47.51 87.4858 46.313 87.8098 45.035C88.1518 43.757 88.4938 42.452 88.8358 41.12C89.1778 39.77 89.5018 38.438 89.8078 37.124C90.1318 36.962 90.4828 36.827 90.8608 36.719C91.2388 36.611 91.6528 36.557 92.1028 36.557C92.7688 36.557 93.3358 36.71 93.8038 37.016C94.2718 37.304 94.5058 37.79 94.5058 38.474C94.5058 38.852 94.4158 39.419 94.2358 40.175C94.0558 40.931 93.8128 41.795 93.5068 42.767C93.2008 43.721 92.8588 44.711 92.4808 45.737C92.1208 46.745 91.7518 47.708 91.3738 48.626C91.0138 49.544 90.6718 50.345 90.3478 51.029C90.0238 51.713 89.7628 52.19 89.5648 52.46ZM104.028 49.463H99.4379V40.958L96.7379 41.795C96.4679 41.615 96.1979 41.363 95.9279 41.039C95.6579 40.715 95.5229 40.265 95.5229 39.689C95.5229 38.609 96.1799 37.853 97.4939 37.421L100.518 36.395H101.517C102.291 36.395 102.903 36.62 103.353 37.07C103.803 37.52 104.028 38.132 104.028 38.906V49.463ZM99.4379 45.872H104.028V52.973C103.83 53.027 103.542 53.081 103.164 53.135C102.804 53.189 102.408 53.216 101.976 53.216C101.094 53.216 100.446 53.063 100.032 52.757C99.6359 52.451 99.4379 51.884 99.4379 51.056V45.872Z"/>
</mask>
<g filter="url(#filter7_ii_1822_343)">
<path d="M67.2657 41.066H71.9907V52.838L69.7767 53.081C69.0027 53.081 68.3907 52.856 67.9407 52.406C67.4907 51.956 67.2657 51.344 67.2657 50.57V41.066ZM69.7767 53.081V49.274H78.1737C78.2997 49.472 78.4167 49.733 78.5247 50.057C78.6327 50.381 78.6867 50.732 78.6867 51.11C78.6867 51.776 78.5427 52.271 78.2547 52.595C77.9667 52.919 77.5707 53.081 77.0667 53.081H69.7767ZM71.9907 47.303H67.2657V36.584C67.4817 36.548 67.7967 36.503 68.2107 36.449C68.6427 36.377 69.0567 36.341 69.4527 36.341C70.3527 36.341 71.0007 36.494 71.3967 36.8C71.7927 37.106 71.9907 37.7 71.9907 38.582V47.303ZM89.5648 52.46C89.3128 52.676 88.9168 52.865 88.3768 53.027C87.8548 53.189 87.2788 53.27 86.6488 53.27C85.9108 53.27 85.2628 53.162 84.7048 52.946C84.1648 52.712 83.7958 52.397 83.5978 52.001C83.3458 51.497 83.0488 50.831 82.7068 50.003C82.3648 49.175 81.9958 48.239 81.5998 47.195C81.2038 46.151 80.8078 45.071 80.4118 43.955C80.0158 42.839 79.6468 41.732 79.3048 40.634C78.9808 39.518 78.7018 38.492 78.4678 37.556C78.7198 37.304 79.0798 37.079 79.5478 36.881C80.0338 36.665 80.5468 36.557 81.0868 36.557C81.7528 36.557 82.2928 36.701 82.7068 36.989C83.1388 37.277 83.4538 37.79 83.6518 38.528C84.1378 40.292 84.6238 41.984 85.1098 43.604C85.6138 45.206 86.1358 46.88 86.6758 48.626H86.8378C87.1618 47.51 87.4858 46.313 87.8098 45.035C88.1518 43.757 88.4938 42.452 88.8358 41.12C89.1778 39.77 89.5018 38.438 89.8078 37.124C90.1318 36.962 90.4828 36.827 90.8608 36.719C91.2388 36.611 91.6528 36.557 92.1028 36.557C92.7688 36.557 93.3358 36.71 93.8038 37.016C94.2718 37.304 94.5058 37.79 94.5058 38.474C94.5058 38.852 94.4158 39.419 94.2358 40.175C94.0558 40.931 93.8128 41.795 93.5068 42.767C93.2008 43.721 92.8588 44.711 92.4808 45.737C92.1208 46.745 91.7518 47.708 91.3738 48.626C91.0138 49.544 90.6718 50.345 90.3478 51.029C90.0238 51.713 89.7628 52.19 89.5648 52.46ZM104.028 49.463H99.4379V40.958L96.7379 41.795C96.4679 41.615 96.1979 41.363 95.9279 41.039C95.6579 40.715 95.5229 40.265 95.5229 39.689C95.5229 38.609 96.1799 37.853 97.4939 37.421L100.518 36.395H101.517C102.291 36.395 102.903 36.62 103.353 37.07C103.803 37.52 104.028 38.132 104.028 38.906V49.463ZM99.4379 45.872H104.028V52.973C103.83 53.027 103.542 53.081 103.164 53.135C102.804 53.189 102.408 53.216 101.976 53.216C101.094 53.216 100.446 53.063 100.032 52.757C99.6359 52.451 99.4379 51.884 99.4379 51.056V45.872Z" fill="#FEEEF8"/>
</g>
<path d="M67.2657 41.066V40.066H66.2657V41.066H67.2657ZM71.9907 41.066H72.9907V40.066H71.9907V41.066ZM71.9907 52.838L72.0998 53.832L72.9907 53.7342V52.838H71.9907ZM69.7767 53.081V54.081H69.8315L69.8858 54.075L69.7767 53.081ZM67.9407 52.406L68.6478 51.6989V51.6989L67.9407 52.406ZM69.7767 53.081H68.7767V54.081H69.7767V53.081ZM69.7767 49.274V48.274H68.7767V49.274H69.7767ZM78.1737 49.274L79.0174 48.7371L78.7227 48.274H78.1737V49.274ZM78.2547 52.595L77.5073 51.9306V51.9306L78.2547 52.595ZM71.9907 47.303V48.303H72.9907V47.303H71.9907ZM67.2657 47.303H66.2657V48.303H67.2657V47.303ZM67.2657 36.584L67.1013 35.5976L66.2657 35.7369V36.584H67.2657ZM68.2107 36.449L68.3401 37.4406L68.3577 37.4383L68.3751 37.4354L68.2107 36.449ZM67.2657 41.066V42.066H71.9907V41.066V40.066H67.2657V41.066ZM71.9907 41.066H70.9907V52.838H71.9907H72.9907V41.066H71.9907ZM71.9907 52.838L71.8816 51.844L69.6676 52.087L69.7767 53.081L69.8858 54.075L72.0998 53.832L71.9907 52.838ZM69.7767 53.081V52.081C69.2068 52.081 68.8711 51.9222 68.6478 51.6989L67.9407 52.406L67.2336 53.1131C67.9104 53.7898 68.7986 54.081 69.7767 54.081V53.081ZM67.9407 52.406L68.6478 51.6989C68.4246 51.4756 68.2657 51.1399 68.2657 50.57H67.2657H66.2657C66.2657 51.5481 66.5569 52.4364 67.2336 53.1131L67.9407 52.406ZM67.2657 50.57H68.2657V41.066H67.2657H66.2657V50.57H67.2657ZM69.7767 53.081H70.7767V49.274H69.7767H68.7767V53.081H69.7767ZM69.7767 49.274V50.274H78.1737V49.274V48.274H69.7767V49.274ZM78.1737 49.274L77.3301 49.8109C77.3973 49.9164 77.4833 50.095 77.5761 50.3732L78.5247 50.057L79.4734 49.7408C79.3502 49.371 79.2022 49.0276 79.0174 48.7371L78.1737 49.274ZM78.5247 50.057L77.5761 50.3732C77.6466 50.585 77.6867 50.8281 77.6867 51.11H78.6867H79.6867C79.6867 50.6359 79.6188 50.177 79.4734 49.7408L78.5247 50.057ZM78.6867 51.11H77.6867C77.6867 51.6575 77.5647 51.8661 77.5073 51.9306L78.2547 52.595L79.0022 53.2594C79.5208 52.6759 79.6867 51.8945 79.6867 51.11H78.6867ZM78.2547 52.595L77.5073 51.9306C77.4406 52.0057 77.3363 52.081 77.0667 52.081V53.081V54.081C77.8052 54.081 78.4928 53.8323 79.0022 53.2594L78.2547 52.595ZM77.0667 53.081V52.081H69.7767V53.081V54.081H77.0667V53.081ZM71.9907 47.303V46.303H67.2657V47.303V48.303H71.9907V47.303ZM67.2657 47.303H68.2657V36.584H67.2657H66.2657V47.303H67.2657ZM67.2657 36.584L67.4301 37.5704C67.6283 37.5374 67.9293 37.4942 68.3401 37.4406L68.2107 36.449L68.0814 35.4574C67.6641 35.5118 67.3351 35.5586 67.1013 35.5976L67.2657 36.584ZM68.2107 36.449L68.3751 37.4354C68.7584 37.3715 69.1173 37.341 69.4527 37.341V36.341V35.341C68.9962 35.341 68.527 35.3825 68.0463 35.4626L68.2107 36.449ZM69.4527 36.341V37.341C70.2874 37.341 70.6571 37.4922 70.7853 37.5913L71.3967 36.8L72.0082 36.0087C71.3444 35.4958 70.418 35.341 69.4527 35.341V36.341ZM71.3967 36.8L70.7853 37.5913C70.8001 37.6027 70.9907 37.7828 70.9907 38.582H71.9907H72.9907C72.9907 37.6172 72.7854 36.6093 72.0082 36.0087L71.3967 36.8ZM71.9907 38.582H70.9907V47.303H71.9907H72.9907V38.582H71.9907ZM89.5648 52.46L90.2156 53.2193L90.3031 53.1443L90.3712 53.0514L89.5648 52.46ZM88.3768 53.027L88.0894 52.0691L88.0804 52.0719L88.3768 53.027ZM84.7048 52.946L84.3072 53.8636L84.3253 53.8714L84.3438 53.8786L84.7048 52.946ZM83.5978 52.001L84.4922 51.5538L84.4922 51.5538L83.5978 52.001ZM82.7068 50.003L83.6311 49.6212V49.6212L82.7068 50.003ZM81.5998 47.195L80.6648 47.5497V47.5497L81.5998 47.195ZM80.4118 43.955L79.4694 44.2894V44.2894L80.4118 43.955ZM79.3048 40.634L78.3444 40.9128L78.3471 40.9221L78.35 40.9314L79.3048 40.634ZM78.4678 37.556L77.7607 36.8489L77.3603 37.2492L77.4976 37.7985L78.4678 37.556ZM79.5478 36.881L79.9374 37.802L79.9457 37.7985L79.9539 37.7948L79.5478 36.881ZM82.7068 36.989L82.1357 37.8099L82.1439 37.8156L82.1521 37.821L82.7068 36.989ZM83.6518 38.528L82.6859 38.7871L82.6877 38.7936L83.6518 38.528ZM85.1098 43.604L84.1519 43.8914L84.1559 43.9041L85.1098 43.604ZM86.6758 48.626L85.7204 48.9215L85.9383 49.626H86.6758V48.626ZM86.8378 48.626V49.626H87.5888L87.7981 48.9048L86.8378 48.626ZM87.8098 45.035L86.8437 44.7765L86.8405 44.7893L87.8098 45.035ZM88.8358 41.12L89.8044 41.3687L89.8052 41.3656L88.8358 41.12ZM89.8078 37.124L89.3606 36.2296L88.9404 36.4397L88.8339 36.8972L89.8078 37.124ZM90.8608 36.719L90.5861 35.7575H90.5861L90.8608 36.719ZM93.8038 37.016L93.2565 37.853L93.268 37.8605L93.2797 37.8677L93.8038 37.016ZM93.5068 42.767L94.459 43.0724L94.4606 43.0673L93.5068 42.767ZM92.4808 45.737L91.5424 45.3913L91.539 45.4007L92.4808 45.737ZM91.3738 48.626L90.4491 48.2453L90.4459 48.2531L90.4428 48.2609L91.3738 48.626ZM90.3478 51.029L89.4441 50.6009V50.6009L90.3478 51.029ZM89.5648 52.46L88.914 51.7007C88.8173 51.7837 88.5764 51.9231 88.0894 52.0692L88.3768 53.027L88.6641 53.9848C89.2572 53.8069 89.8083 53.5683 90.2156 53.2193L89.5648 52.46ZM88.3768 53.027L88.0804 52.0719C87.6677 52.2 87.1933 52.27 86.6488 52.27V53.27V54.27C87.3643 54.27 88.0419 54.178 88.6732 53.9821L88.3768 53.027ZM86.6488 53.27V52.27C86.0064 52.27 85.4852 52.1758 85.0658 52.0134L84.7048 52.946L84.3438 53.8786C85.0403 54.1482 85.8152 54.27 86.6488 54.27V53.27ZM84.7048 52.946L85.1024 52.0284C84.7065 51.8569 84.5548 51.6789 84.4922 51.5538L83.5978 52.001L82.7034 52.4482C83.0368 53.1151 83.6231 53.5671 84.3072 53.8636L84.7048 52.946ZM83.5978 52.001L84.4922 51.5538C84.2553 51.0799 83.9685 50.4383 83.6311 49.6212L82.7068 50.003L81.7825 50.3848C82.129 51.2237 82.4363 51.9141 82.7034 52.4482L83.5978 52.001ZM82.7068 50.003L83.6311 49.6212C83.2935 48.8041 82.9281 47.8774 82.5348 46.8403L81.5998 47.195L80.6648 47.5497C81.0634 48.6006 81.436 49.5459 81.7825 50.3848L82.7068 50.003ZM81.5998 47.195L82.5348 46.8403C82.1415 45.8035 81.748 44.7302 81.3542 43.6206L80.4118 43.955L79.4694 44.2894C79.8676 45.4118 80.2661 46.4985 80.6648 47.5497L81.5998 47.195ZM80.4118 43.955L81.3542 43.6206C80.9624 42.5165 80.5976 41.4218 80.2595 40.3366L79.3048 40.634L78.35 40.9314C78.696 42.0422 79.0691 43.1615 79.4694 44.2894L80.4118 43.955ZM79.3048 40.634L80.2651 40.3552C79.9439 39.2489 79.6684 38.2352 79.4379 37.3135L78.4678 37.556L77.4976 37.7985C77.7352 38.7488 78.0176 39.7871 78.3444 40.9128L79.3048 40.634ZM78.4678 37.556L79.1749 38.2631C79.3059 38.1322 79.5415 37.9695 79.9374 37.802L79.5478 36.881L79.1581 35.96C78.6181 36.1885 78.1337 36.4758 77.7607 36.8489L78.4678 37.556ZM79.5478 36.881L79.9539 37.7948C80.3101 37.6365 80.6845 37.557 81.0868 37.557V36.557V35.557C80.4091 35.557 79.7575 35.6935 79.1417 35.9672L79.5478 36.881ZM81.0868 36.557V37.557C81.6133 37.557 81.9356 37.6707 82.1357 37.8099L82.7068 36.989L83.2779 36.1681C82.65 35.7313 81.8923 35.557 81.0868 35.557V36.557ZM82.7068 36.989L82.1521 37.821C82.3051 37.9231 82.5219 38.1756 82.6859 38.7871L83.6518 38.528L84.6176 38.2689C84.3857 37.4044 83.9725 36.6309 83.2615 36.1569L82.7068 36.989ZM83.6518 38.528L82.6877 38.7936C83.1756 40.5643 83.6636 42.2636 84.152 43.8913L85.1098 43.604L86.0676 43.3167C85.584 41.7044 85.1 40.0197 84.6159 38.2624L83.6518 38.528ZM85.1098 43.604L84.1559 43.9041C84.6594 45.5044 85.1809 47.1769 85.7204 48.9215L86.6758 48.626L87.6311 48.3305C87.0907 46.5831 86.5682 44.9076 86.0637 43.3039L85.1098 43.604ZM86.6758 48.626V49.626H86.8378V48.626V47.626H86.6758V48.626ZM86.8378 48.626L87.7981 48.9048C88.1257 47.7765 88.4527 46.5684 88.7791 45.2807L87.8098 45.035L86.8405 44.7893C86.5189 46.0576 86.1979 47.2435 85.8774 48.3472L86.8378 48.626ZM87.8098 45.035L88.7758 45.2935C89.1187 44.0121 89.4616 42.7038 89.8044 41.3687L88.8358 41.12L87.8672 40.8713C87.526 42.2002 87.1849 43.5019 86.8438 44.7765L87.8098 45.035ZM88.8358 41.12L89.8052 41.3656C90.1487 40.0095 90.4742 38.6713 90.7817 37.3508L89.8078 37.124L88.8339 36.8972C88.5294 38.2047 88.2069 39.5305 87.8664 40.8744L88.8358 41.12ZM89.8078 37.124L90.255 38.0184C90.5192 37.8863 90.812 37.773 91.1355 37.6805L90.8608 36.719L90.5861 35.7575C90.1536 35.881 89.7443 36.0377 89.3606 36.2296L89.8078 37.124ZM90.8608 36.719L91.1355 37.6805C91.4124 37.6014 91.7326 37.557 92.1028 37.557V36.557V35.557C91.573 35.557 91.0652 35.6206 90.5861 35.7575L90.8608 36.719ZM92.1028 36.557V37.557C92.6121 37.557 92.9802 37.6723 93.2565 37.853L93.8038 37.016L94.351 36.179C93.6914 35.7477 92.9255 35.557 92.1028 35.557V36.557ZM93.8038 37.016L93.2797 37.8677C93.3772 37.9276 93.5058 38.0393 93.5058 38.474H94.5058H95.5058C95.5058 37.5407 95.1664 36.6804 94.3279 36.1643L93.8038 37.016ZM94.5058 38.474H93.5058C93.5058 38.729 93.4397 39.2012 93.263 39.9434L94.2358 40.175L95.2086 40.4066C95.3919 39.6368 95.5058 38.975 95.5058 38.474H94.5058ZM94.2358 40.175L93.263 39.9434C93.0899 40.6705 92.8539 41.5108 92.5529 42.4667L93.5068 42.767L94.4606 43.0673C94.7717 42.0791 95.0217 41.1915 95.2086 40.4066L94.2358 40.175ZM93.5068 42.767L92.5546 42.4616C92.2533 43.4009 91.916 44.3774 91.5424 45.3913L92.4808 45.737L93.4191 46.0827C93.8016 45.0446 94.1483 44.0411 94.459 43.0724L93.5068 42.767ZM92.4808 45.737L91.539 45.4007C91.184 46.3949 90.8206 47.343 90.4491 48.2453L91.3738 48.626L92.2985 49.0068C92.683 48.073 93.0576 47.0951 93.4225 46.0733L92.4808 45.737ZM91.3738 48.626L90.4428 48.2609C90.0888 49.1636 89.7558 49.9427 89.4441 50.6009L90.3478 51.029L91.2515 51.4571C91.5877 50.7473 91.9388 49.9244 92.3048 48.9911L91.3738 48.626ZM90.3478 51.029L89.4441 50.6009C89.122 51.2808 88.8953 51.682 88.7584 51.8686L89.5648 52.46L90.3712 53.0514C90.6303 52.698 90.9256 52.1452 91.2515 51.4571L90.3478 51.029ZM104.028 49.463V50.463H105.028V49.463H104.028ZM99.4379 49.463H98.4379V50.463H99.4379V49.463ZM99.4379 40.958H100.438V39.6011L99.1418 40.0028L99.4379 40.958ZM96.7379 41.795L96.1832 42.6271L96.5793 42.8911L97.034 42.7502L96.7379 41.795ZM95.9279 41.039L95.1597 41.6792V41.6792L95.9279 41.039ZM97.4939 37.421L97.8063 38.371L97.8152 38.368L97.4939 37.421ZM100.518 36.395V35.395H100.353L100.197 35.448L100.518 36.395ZM103.353 37.07L104.06 36.3629V36.3629L103.353 37.07ZM99.4379 45.872V44.872H98.4379V45.872H99.4379ZM104.028 45.872H105.028V44.872H104.028V45.872ZM104.028 52.973L104.291 53.9378L105.028 53.7368V52.973H104.028ZM103.164 53.135L103.023 52.145L103.016 52.1461L103.164 53.135ZM100.032 52.757L99.4205 53.5483L99.4289 53.5548L99.4375 53.5612L100.032 52.757ZM104.028 49.463V48.463H99.4379V49.463V50.463H104.028V49.463ZM99.4379 49.463H100.438V40.958H99.4379H98.4379V49.463H99.4379ZM99.4379 40.958L99.1418 40.0028L96.4418 40.8398L96.7379 41.795L97.034 42.7502L99.734 41.9132L99.4379 40.958ZM96.7379 41.795L97.2926 40.9629C97.1225 40.8495 96.9219 40.6698 96.6962 40.3988L95.9279 41.039L95.1597 41.6792C95.4739 42.0562 95.8134 42.3805 96.1832 42.6271L96.7379 41.795ZM95.9279 41.039L96.6962 40.3988C96.6227 40.3107 96.5229 40.1164 96.5229 39.689H95.5229H94.5229C94.5229 40.4136 94.6931 41.1193 95.1597 41.6792L95.9279 41.039ZM95.5229 39.689H96.5229C96.5229 39.3696 96.613 39.1492 96.7705 38.968C96.9439 38.7684 97.2581 38.5512 97.8063 38.371L97.4939 37.421L97.1816 36.471C96.4158 36.7228 95.7444 37.0996 95.2609 37.656C94.7614 38.2308 94.5229 38.9284 94.5229 39.689H95.5229ZM97.4939 37.421L97.8152 38.368L100.839 37.342L100.518 36.395L100.197 35.448L97.1726 36.474L97.4939 37.421ZM100.518 36.395V37.395H101.517V36.395V35.395H100.518V36.395ZM101.517 36.395V37.395C102.087 37.395 102.423 37.5538 102.646 37.7771L103.353 37.07L104.06 36.3629C103.383 35.6862 102.495 35.395 101.517 35.395V36.395ZM103.353 37.07L102.646 37.7771C102.869 38.0004 103.028 38.3361 103.028 38.906H104.028H105.028C105.028 37.9279 104.737 37.0396 104.06 36.3629L103.353 37.07ZM104.028 38.906H103.028V49.463H104.028H105.028V38.906H104.028ZM99.4379 45.872V46.872H104.028V45.872V44.872H99.4379V45.872ZM104.028 45.872H103.028V52.973H104.028H105.028V45.872H104.028ZM104.028 52.973L103.765 52.0082C103.627 52.0457 103.388 52.0928 103.023 52.1451L103.164 53.135L103.305 54.125C103.696 54.0692 104.033 54.0083 104.291 53.9378L104.028 52.973ZM103.164 53.135L103.016 52.1461C102.713 52.1915 102.367 52.216 101.976 52.216V53.216V54.216C102.449 54.216 102.895 54.1865 103.312 54.1239L103.164 53.135ZM101.976 53.216V52.216C101.171 52.216 100.784 52.0691 100.626 51.9528L100.032 52.757L99.4375 53.5612C100.108 54.0569 101.017 54.216 101.976 54.216V53.216ZM100.032 52.757L100.643 51.9657C100.616 51.9448 100.438 51.7748 100.438 51.056H99.4379H98.4379C98.4379 51.9932 98.6555 52.9572 99.4205 53.5483L100.032 52.757ZM99.4379 51.056H100.438V45.872H99.4379H98.4379V51.056H99.4379Z" fill="#95410D" mask="url(#path-12-outside-1_1822_343)"/>
</g>
<defs>
<filter id="filter0_d_1822_343" x="0" y="0" width="178.511" height="98" filterUnits="userSpaceOnUse" color-interpolation-filters="sRGB">
<feFlood flood-opacity="0" result="BackgroundImageFix"/>
<feColorMatrix in="SourceAlpha" type="matrix" values="0 0 0 0 0 0 0 0 0 0 0 0 0 0 0 0 0 0 127 0" result="hardAlpha"/>
<feOffset dy="4"/>
<feGaussianBlur stdDeviation="2"/>
<feComposite in2="hardAlpha" operator="out"/>
<feColorMatrix type="matrix" values="0 0 0 0 0 0 0 0 0 0 0 0 0 0 0 0 0 0 0.25 0"/>
<feBlend mode="normal" in2="BackgroundImageFix" result="effect1_dropShadow_1822_343"/>
<feBlend mode="normal" in="SourceGraphic" in2="effect1_dropShadow_1822_343" result="shape"/>
</filter>
<filter id="filter1_ii_1822_343" x="44.5244" y="-1.52246" width="82.0283" height="92.96" filterUnits="userSpaceOnUse" color-interpolation-filters="sRGB">
<feFlood flood-opacity="0" result="BackgroundImageFix"/>
<feBlend mode="normal" in="SourceGraphic" in2="BackgroundImageFix" result="shape"/>
<feColorMatrix in="SourceAlpha" type="matrix" values="0 0 0 0 0 0 0 0 0 0 0 0 0 0 0 0 0 0 127 0" result="hardAlpha"/>
<feOffset dy="-2"/>
<feGaussianBlur stdDeviation="2"/>
<feComposite in2="hardAlpha" operator="arithmetic" k2="-1" k3="1"/>
<feColorMatrix type="matrix" values="0 0 0 0 0 0 0 0 0 0 0 0 0 0 0 0 0 0 0.25 0"/>
<feBlend mode="normal" in2="shape" result="effect1_innerShadow_1822_343"/>
<feColorMatrix in="SourceAlpha" type="matrix" values="0 0 0 0 0 0 0 0 0 0 0 0 0 0 0 0 0 0 127 0" result="hardAlpha"/>
<feOffset dy="2"/>
<feGaussianBlur stdDeviation="2"/>
<feComposite in2="hardAlpha" operator="arithmetic" k2="-1" k3="1"/>
<feColorMatrix type="matrix" values="0 0 0 0 1 0 0 0 0 1 0 0 0 0 1 0 0 0 0.25 0"/>
<feBlend mode="normal" in2="effect1_innerShadow_1822_343" result="effect2_innerShadow_1822_343"/>
</filter>
<filter id="filter2_ii_1822_343" x="4" y="15.915" width="57.6699" height="42.0068" filterUnits="userSpaceOnUse" color-interpolation-filters="sRGB">
<feFlood flood-opacity="0" result="BackgroundImageFix"/>
<feBlend mode="normal" in="SourceGraphic" in2="BackgroundImageFix" result="shape"/>
<feColorMatrix in="SourceAlpha" type="matrix" values="0 0 0 0 0 0 0 0 0 0 0 0 0 0 0 0 0 0 127 0" result="hardAlpha"/>
<feOffset dy="2"/>
<feGaussianBlur stdDeviation="2"/>
<feComposite in2="hardAlpha" operator="arithmetic" k2="-1" k3="1"/>
<feColorMatrix type="matrix" values="0 0 0 0 1 0 0 0 0 1 0 0 0 0 1 0 0 0 0.25 0"/>
<feBlend mode="normal" in2="shape" result="effect1_innerShadow_1822_343"/>
<feColorMatrix in="SourceAlpha" type="matrix" values="0 0 0 0 0 0 0 0 0 0 0 0 0 0 0 0 0 0 127 0" result="hardAlpha"/>
<feOffset dy="-2"/>
<feGaussianBlur stdDeviation="2"/>
<feComposite in2="hardAlpha" operator="arithmetic" k2="-1" k3="1"/>
<feColorMatrix type="matrix" values="0 0 0 0 0 0 0 0 0 0 0 0 0 0 0 0 0 0 0.25 0"/>
<feBlend mode="normal" in2="effect1_innerShadow_1822_343" result="effect2_innerShadow_1822_343"/>
</filter>
<filter id="filter3_ii_1822_343" x="17.042" y="19.9434" width="38.4463" height="29.3379" filterUnits="userSpaceOnUse" color-interpolation-filters="sRGB">
<feFlood flood-opacity="0" result="BackgroundImageFix"/>
<feBlend mode="normal" in="SourceGraphic" in2="BackgroundImageFix" result="shape"/>
<feColorMatrix in="SourceAlpha" type="matrix" values="0 0 0 0 0 0 0 0 0 0 0 0 0 0 0 0 0 0 127 0" result="hardAlpha"/>
<feOffset dy="2"/>
<feGaussianBlur stdDeviation="2"/>
<feComposite in2="hardAlpha" operator="arithmetic" k2="-1" k3="1"/>
<feColorMatrix type="matrix" values="0 0 0 0 0 0 0 0 0 0 0 0 0 0 0 0 0 0 0.25 0"/>
<feBlend mode="normal" in2="shape" result="effect1_innerShadow_1822_343"/>
<feColorMatrix in="SourceAlpha" type="matrix" values="0 0 0 0 0 0 0 0 0 0 0 0 0 0 0 0 0 0 127 0" result="hardAlpha"/>
<feOffset dy="-2"/>
<feGaussianBlur stdDeviation="2"/>
<feComposite in2="hardAlpha" operator="arithmetic" k2="-1" k3="1"/>
<feColorMatrix type="matrix" values="0 0 0 0 0 0 0 0 0 0 0 0 0 0 0 0 0 0 0.25 0"/>
<feBlend mode="normal" in2="effect1_innerShadow_1822_343" result="effect2_innerShadow_1822_343"/>
</filter>
<filter id="filter4_ii_1822_343" x="109.352" y="15.915" width="57.6699" height="42.0068" filterUnits="userSpaceOnUse" color-interpolation-filters="sRGB">
<feFlood flood-opacity="0" result="BackgroundImageFix"/>
<feBlend mode="normal" in="SourceGraphic" in2="BackgroundImageFix" result="shape"/>
<feColorMatrix in="SourceAlpha" type="matrix" values="0 0 0 0 0 0 0 0 0 0 0 0 0 0 0 0 0 0 127 0" result="hardAlpha"/>
<feOffset dy="2"/>
<feGaussianBlur stdDeviation="2"/>
<feComposite in2="hardAlpha" operator="arithmetic" k2="-1" k3="1"/>
<feColorMatrix type="matrix" values="0 0 0 0 0.873865 0 0 0 0 0.873865 0 0 0 0 0.873865 0 0 0 0.25 0"/>
<feBlend mode="normal" in2="shape" result="effect1_innerShadow_1822_343"/>
<feColorMatrix in="SourceAlpha" type="matrix" values="0 0 0 0 0 0 0 0 0 0 0 0 0 0 0 0 0 0 127 0" result="hardAlpha"/>
<feOffset dy="-2"/>
<feGaussianBlur stdDeviation="2"/>
<feComposite in2="hardAlpha" operator="arithmetic" k2="-1" k3="1"/>
<feColorMatrix type="matrix" values="0 0 0 0 0 0 0 0 0 0 0 0 0 0 0 0 0 0 0.25 0"/>
<feBlend mode="normal" in2="effect1_innerShadow_1822_343" result="effect2_innerShadow_1822_343"/>
</filter>
<filter id="filter5_ii_1822_343" x="115.338" y="19.9434" width="38.4463" height="29.3379" filterUnits="userSpaceOnUse" color-interpolation-filters="sRGB">
<feFlood flood-opacity="0" result="BackgroundImageFix"/>
<feBlend mode="normal" in="SourceGraphic" in2="BackgroundImageFix" result="shape"/>
<feColorMatrix in="SourceAlpha" type="matrix" values="0 0 0 0 0 0 0 0 0 0 0 0 0 0 0 0 0 0 127 0" result="hardAlpha"/>
<feOffset dy="2"/>
<feGaussianBlur stdDeviation="2"/>
<feComposite in2="hardAlpha" operator="arithmetic" k2="-1" k3="1"/>
<feColorMatrix type="matrix" values="0 0 0 0 0 0 0 0 0 0 0 0 0 0 0 0 0 0 0.25 0"/>
<feBlend mode="normal" in2="shape" result="effect1_innerShadow_1822_343"/>
<feColorMatrix in="SourceAlpha" type="matrix" values="0 0 0 0 0 0 0 0 0 0 0 0 0 0 0 0 0 0 127 0" result="hardAlpha"/>
<feOffset dy="-2"/>
<feGaussianBlur stdDeviation="2"/>
<feComposite in2="hardAlpha" operator="arithmetic" k2="-1" k3="1"/>
<feColorMatrix type="matrix" values="0 0 0 0 0 0 0 0 0 0 0 0 0 0 0 0 0 0 0.25 0"/>
<feBlend mode="normal" in2="effect1_innerShadow_1822_343" result="effect2_innerShadow_1822_343"/>
</filter>
<filter id="filter6_ii_1822_343" x="58.1963" y="9.51953" width="54.6855" height="70.9609" filterUnits="userSpaceOnUse" color-interpolation-filters="sRGB">
<feFlood flood-opacity="0" result="BackgroundImageFix"/>
<feBlend mode="normal" in="SourceGraphic" in2="BackgroundImageFix" result="shape"/>
<feColorMatrix in="SourceAlpha" type="matrix" values="0 0 0 0 0 0 0 0 0 0 0 0 0 0 0 0 0 0 127 0" result="hardAlpha"/>
<feOffset dy="2"/>
<feGaussianBlur stdDeviation="2"/>
<feComposite in2="hardAlpha" operator="arithmetic" k2="-1" k3="1"/>
<feColorMatrix type="matrix" values="0 0 0 0 0 0 0 0 0 0 0 0 0 0 0 0 0 0 0.25 0"/>
<feBlend mode="normal" in2="shape" result="effect1_innerShadow_1822_343"/>
<feColorMatrix in="SourceAlpha" type="matrix" values="0 0 0 0 0 0 0 0 0 0 0 0 0 0 0 0 0 0 127 0" result="hardAlpha"/>
<feOffset dy="-2"/>
<feGaussianBlur stdDeviation="2"/>
<feComposite in2="hardAlpha" operator="arithmetic" k2="-1" k3="1"/>
<feColorMatrix type="matrix" values="0 0 0 0 1 0 0 0 0 1 0 0 0 0 1 0 0 0 0.25 0"/>
<feBlend mode="normal" in2="effect1_innerShadow_1822_343" result="effect2_innerShadow_1822_343"/>
</filter>
<filter id="filter7_ii_1822_343" x="66.2656" y="34.3408" width="38.7627" height="20.9287" filterUnits="userSpaceOnUse" color-interpolation-filters="sRGB">
<feFlood flood-opacity="0" result="BackgroundImageFix"/>
<feBlend mode="normal" in="SourceGraphic" in2="BackgroundImageFix" result="shape"/>
<feColorMatrix in="SourceAlpha" type="matrix" values="0 0 0 0 0 0 0 0 0 0 0 0 0 0 0 0 0 0 127 0" result="hardAlpha"/>
<feOffset dy="-1"/>
<feGaussianBlur stdDeviation="2"/>
<feComposite in2="hardAlpha" operator="arithmetic" k2="-1" k3="1"/>
<feColorMatrix type="matrix" values="0 0 0 0 0 0 0 0 0 0 0 0 0 0 0 0 0 0 0.25 0"/>
<feBlend mode="normal" in2="shape" result="effect1_innerShadow_1822_343"/>
<feColorMatrix in="SourceAlpha" type="matrix" values="0 0 0 0 0 0 0 0 0 0 0 0 0 0 0 0 0 0 127 0" result="hardAlpha"/>
<feOffset dy="1"/>
<feGaussianBlur stdDeviation="2"/>
<feComposite in2="hardAlpha" operator="arithmetic" k2="-1" k3="1"/>
<feColorMatrix type="matrix" values="0 0 0 0 0.953993 0 0 0 0 0.953993 0 0 0 0 0.953993 0 0 0 0.25 0"/>
<feBlend mode="normal" in2="effect1_innerShadow_1822_343" result="effect2_innerShadow_1822_343"/>
</filter>
<linearGradient id="paint0_linear_1822_343" x1="85.5384" y1="0" x2="85.5384" y2="89.9153" gradientUnits="userSpaceOnUse">
<stop stop-color="#ED8800"/>
<stop offset="1" stop-color="#A32F04"/>
</linearGradient>
<linearGradient id="paint1_linear_1822_343" x1="85.539" y1="10.9092" x2="85.539" y2="79.091" gradientUnits="userSpaceOnUse">
<stop stop-color="#BA3D02"/>
<stop offset="1" stop-color="#FFB203"/>
</linearGradient>
</defs>
</svg>
