<svg viewBox="0 0 14 14" fill="none" xmlns="http://www.w3.org/2000/svg">
<path d="M0.40288 12.7528C-0.162106 12.1469 -0.12896 11.1978 0.476913 10.6328L11.4472 0.402789C12.0531 -0.162197 13.0023 -0.129051 13.5672 0.476823C14.1322 1.0827 14.0991 2.03187 13.4932 2.59685L2.52291 12.8268C1.91703 13.3918 0.967866 13.3587 0.40288 12.7528Z" fill="currentColor"/>
<path d="M13.5673 12.7528C14.1323 12.1469 14.0992 11.1978 13.4933 10.6328L2.523 0.402789C1.91712 -0.162197 0.967953 -0.129051 0.402968 0.476823C-0.162018 1.0827 -0.128872 2.03187 0.477 2.59685L11.4473 12.8268C12.0532 13.3918 13.0023 13.3587 13.5673 12.7528Z" fill="currentColor"/>
</svg>
